<svg width="154" height="42" viewBox="0 0 154 42" fill="none" xmlns="http://www.w3.org/2000/svg">
<path d="M62.0621 6.48589H54.9847V9.73605C55.046 10.2734 54.986 10.8174 54.8089 11.3297C54.6319 11.8421 54.342 12.3104 53.9597 12.7019C53.5784 13.0931 53.114 13.3982 52.5992 13.5961C52.0843 13.7939 51.5314 13.8796 50.979 13.8472H49.6775V20.5995H54.2578V31.4226C54.2578 36.4497 57.5365 39.5464 62.8967 39.5464C64.3045 39.6127 65.7096 39.3698 67.0083 38.8356V32.429C66.3258 32.5863 65.628 32.6713 64.9268 32.6826C63.2096 32.6826 62.0637 32.1237 62.0637 30.0431V20.5995H67.1126V13.8472H62.0637L62.0621 6.48589ZM82.203 32.7343C81.3837 32.7345 80.5735 32.5673 79.8246 32.2434C79.0756 31.9196 78.4045 31.4463 77.8545 30.854C77.3055 30.2604 76.8901 29.5611 76.6351 28.8012C76.3801 28.0413 76.2912 27.2378 76.3741 26.4424C76.3741 22.1777 79.2372 20.1973 82.203 20.1973C85.2217 20.1973 88.0318 22.1777 88.0318 26.4424C88.0318 30.707 85.2167 32.7424 82.203 32.7424V32.7343ZM82.203 13.0944C80.3892 13.0425 78.5836 13.3514 76.8962 14.0024C75.2089 14.6534 73.6751 15.6328 72.3884 16.8809C71.1023 18.1303 70.0907 19.6221 69.4151 21.2654C68.7395 22.9088 68.4141 24.6691 68.4589 26.4391C68.4135 28.2119 68.7379 29.9753 69.4126 31.622C70.0872 33.2687 71.098 34.7644 72.3834 36.0184C73.6688 37.2723 75.2021 38.2583 76.8901 38.9165C78.5781 39.5746 80.3857 39.8911 82.203 39.8468C84.0221 39.8954 85.8323 39.5813 87.5227 38.9239C89.2131 38.2664 90.7482 37.2794 92.0341 36.0232C93.3198 34.769 94.3299 33.2723 95.0027 31.6244C95.6755 29.9766 95.9968 28.2122 95.9471 26.4391C95.9962 24.668 95.6739 22.9057 94.9999 21.2604C94.3259 19.6151 93.3144 18.1215 92.0275 16.8712C90.7407 15.6205 89.2054 14.6395 87.516 13.9884C85.8266 13.3372 84.0186 13.0297 82.203 13.0847V13.0944ZM106.876 39.0795V24.554C106.839 23.9891 106.923 23.4229 107.121 22.891C107.319 22.3591 107.629 21.873 108.029 21.4633C108.429 21.0536 108.912 20.7292 109.447 20.5105C109.983 20.2918 110.558 20.1835 111.138 20.1924C111.713 20.1562 112.289 20.2434 112.825 20.4479C113.361 20.6523 113.844 20.9691 114.241 21.3758C114.638 21.7824 114.939 22.2692 115.122 22.8016C115.305 23.334 115.367 23.8991 115.301 24.4571V39.0795H123.107V24.5087C123.076 23.9425 123.166 23.3761 123.371 22.8454C123.576 22.3148 123.891 21.8313 124.298 21.4257C124.704 21.02 125.192 20.701 125.731 20.4887C126.27 20.2764 126.848 20.1755 127.429 20.1924C128 20.1618 128.571 20.2533 129.102 20.4605C129.632 20.6676 130.11 20.9855 130.502 21.3917C130.894 21.7979 131.19 22.2828 131.369 22.8123C131.549 23.3418 131.607 23.9031 131.541 24.4571V39.0795H139.191V22.7318C139.191 15.8777 134.507 13.0847 129.615 13.0847C128.039 12.9886 126.465 13.3049 125.056 14.001C123.647 14.6971 122.454 15.7476 121.6 17.0441C120.849 15.7377 119.728 14.6697 118.372 13.9677C117.015 13.2657 115.48 12.9592 113.95 13.0847C112.499 13.0638 111.064 13.3854 109.768 14.0222C108.472 14.659 107.353 15.5921 106.507 16.742V13.8472H98.9608V39.0795H106.876ZM151.685 13.8472H143.77V39.0795H151.68L151.685 13.8472ZM143.093 6.13859C143.093 7.32873 143.573 8.47094 144.431 9.31762C145.288 10.1643 146.453 10.6472 147.673 10.6617C148.286 10.6666 148.895 10.5531 149.463 10.3277C150.032 10.1023 150.549 9.76945 150.985 9.34836C151.42 8.92817 151.766 8.42836 152.002 7.87756C152.239 7.32677 152.362 6.73582 152.364 6.13859C152.362 5.54135 152.239 4.95041 152.002 4.39961C151.766 3.84882 151.42 3.349 150.985 2.92882C150.549 2.50772 150.032 2.1749 149.463 1.94951C148.895 1.72412 148.286 1.61061 147.673 1.61551C146.453 1.62996 145.288 2.11287 144.431 2.95955C143.573 3.80623 143.093 4.94845 143.093 6.13859Z" fill="#FF0083"/>
<path fill-rule="evenodd" clip-rule="evenodd" d="M18.4238 1.86712C11.3505 3.14771 5.45504 8.60823 3.27827 15.895C2.88131 17.224 2.74077 18.6559 2.76511 21.1172C2.80496 25.0872 3.66064 28.301 5.44652 31.1874L6.5273 32.9338L12.5274 29.3205L18.5278 25.7075L18.6093 33.046L18.6908 40.3846H21.7272H24.7636V33.14C24.7636 28.0858 24.8646 25.8955 25.0976 25.8955C25.281 25.8955 27.971 27.4421 31.0752 29.3328C35.437 31.9892 36.8292 32.7011 37.2052 32.4668C37.7092 32.1529 40.1823 27.53 39.9514 27.3333C39.8796 27.2723 35.764 24.7632 30.8057 21.7578L21.7905 16.2936L15.7122 20.0157C12.3692 22.0627 9.46331 23.7376 9.25464 23.7376C8.96901 23.7376 8.90513 22.9931 8.99608 20.7319C9.10011 18.1482 9.25282 17.433 10.0836 15.6379C14.1329 6.88835 25.3595 5.35312 31.704 12.6812C32.9231 14.0894 34.0964 16.6608 34.4973 18.8042C34.6674 19.7115 34.8392 20.4772 34.88 20.5062C34.9207 20.5352 36.2543 21.3429 37.8437 22.3007L40.7335 24.0425L40.8284 21.501C40.9583 18.0255 40.4746 15.7532 38.9083 12.4854C37.2803 9.08791 35.4896 6.98484 32.4991 4.95791C28.5371 2.2722 22.9555 1.04649 18.4238 1.86712Z" fill="url(#paint0_linear_2409_6799)"/>
<defs>
<linearGradient id="paint0_linear_2409_6799" x1="26.5876" y1="5.41931" x2="18.3614" y2="26.6478" gradientUnits="userSpaceOnUse">
<stop stop-color="#7A1DF2"/>
<stop offset="1" stop-color="#FF0083"/>
</linearGradient>
</defs>
</svg>
