<svg width="20" height="20" viewBox="0 0 20 20" fill="none" xmlns="http://www.w3.org/2000/svg">
<path d="M8.875 15.9251V4.07512C8.875 2.95012 8.4 2.50012 7.2 2.50012H4.175C2.975 2.50012 2.5 2.95012 2.5 4.07512V15.9251C2.5 17.0501 2.975 17.5001 4.175 17.5001H7.2C8.4 17.5001 8.875 17.0501 8.875 15.9251Z" fill="white"/>
<path d="M17.5 15.9251V4.07512C17.5 2.95012 17.025 2.50012 15.825 2.50012H12.8C11.6083 2.50012 11.125 2.95012 11.125 4.07512V15.9251C11.125 17.0501 11.6 17.5001 12.8 17.5001H15.825C17.025 17.5001 17.5 17.0501 17.5 15.9251Z" fill="white"/>
</svg>
