<svg width="58" height="38" viewBox="0 0 58 38" fill="none" xmlns="http://www.w3.org/2000/svg">
<path d="M47.3176 16.0609C47.3176 15.9062 47.3434 15.7516 47.3434 15.5969C47.3434 7.21797 40.666 0.4375 32.4289 0.4375C26.4863 0.4375 21.3816 3.96953 18.984 9.07422C17.9398 8.5457 16.7668 8.23633 15.5293 8.23633C11.7266 8.23633 8.55547 11.0594 7.94961 14.7461C3.38633 16.3188 0.125 20.6887 0.125 25.832C0.125 32.3031 5.29414 37.5625 11.6621 37.5625H24.875V27.25H18.6617L29 16.4605L39.3383 27.2371H33.125V37.5496H47.3434C53.1699 37.5496 57.875 32.7156 57.875 26.7988C57.875 20.882 53.1441 16.0738 47.3176 16.0609Z" fill="#E0E0E0"/>
</svg>
